<svg width="90" height="130" viewBox="0 0 90 130" fill="none" xmlns="http://www.w3.org/2000/svg">
<g clip-path="url(#clip0_623_155)">
<rect width="90" height="130" fill="#5C61CE"/>
<path d="M70 128.5L69.5 129L67.5 130H20L19 129.5L18.5 129L18 128V108.5L18.5 107.5L19.5 106.5L21.5 105.5L29 103H30L31 103.5H31.5L33.5 103L34.5 102.5L35.5 100.5V96L35 95.5H34.5L32 94.5L27 92L25 90L24 88V87L23.5 86V83.5H22L21 83L20.5 82.5L19.5 80.5V78L20 77L20.5 76.5L20 75L19.5 71.5L19 69L18.5 68V66L18 64V59.5L18.5 58L19.5 56L20.5 55L22 54L25 53L26 51L27 48L28 46H29.5L32.5 46.5H34.5L37 47H39L41 46H47L49 46.5L54 47.5L60 49H61L64 48L65 47.5H66L66.5 49L67 50V52L68.5 53L69.5 57V58.5L70 61V68L69.5 70V71L69 73L68 76V77L68.5 78V81L66.5 83L65.5 83.5H64.5L64 84V88L63 90L60.5 92.5L58.5 93.5L57 94L54.5 95L52.5 96V101L54.5 103L55.5 103.5H57.5L58 103H59L60 103.5L62 104L66.5 105.5L68.5 106.5L69.5 107.5L70 108.5V128.5Z" fill="white"/>
<path d="M69.5 129L69.5224 129.045L69.5296 129.041L69.5354 129.035L69.5 129ZM70 128.5L70.0354 128.535L70.05 128.521V128.5H70ZM70 108.5H70.05V108.488L70.0447 108.478L70 108.5ZM69.5 107.5L69.5447 107.478L69.5411 107.47L69.5354 107.465L69.5 107.5ZM68.5 106.5L68.5354 106.465L68.5296 106.459L68.5224 106.455L68.5 106.5ZM66.5 105.5L66.5226 105.455L66.5158 105.453L66.5 105.5ZM62 104L62.0159 103.952L62.0121 103.951L62 104ZM60 103.5L59.9771 103.546L59.9879 103.549L60 103.5ZM59 103L59.0224 102.955L59.0118 102.95H59V103ZM58 103V102.95H57.9793L57.9646 102.965L58 103ZM57.5 103.5V103.55H57.5207L57.5354 103.535L57.5 103.5ZM55.5 103.5L55.4776 103.545L55.4882 103.55H55.5V103.5ZM54.5 103L54.4646 103.035L54.4704 103.041L54.4776 103.045L54.5 103ZM52.5 101H52.45V101.021L52.4646 101.035L52.5 101ZM52.5 96L52.4776 95.9553L52.45 95.9691V96H52.5ZM54.5 95L54.4814 94.9534L54.4776 94.9553L54.5 95ZM57 94L56.9842 93.9525L56.9814 93.9536L57 94ZM58.5 93.5L58.516 93.5479L58.5224 93.5447L58.5 93.5ZM64 84L63.9646 83.9646L63.95 83.9793V84H64ZM64.5 83.5V83.45H64.4793L64.4646 83.4646L64.5 83.5ZM65.5 83.5V83.55H65.5118L65.5224 83.5447L65.5 83.5ZM66.5 83L66.5224 83.0447L66.5296 83.0411L66.5354 83.0354L66.5 83ZM68.5 78H68.55V77.9882L68.5447 77.9776L68.5 78ZM68 77H67.95V77.0118L67.9553 77.0224L68 77ZM69 73L69.0476 73.0159L69.0485 73.0121L69 73ZM69.5 71L69.55 71.0125V71H69.5ZM69.5 70L69.45 69.9875V70H69.5ZM70 68L70.05 68.0125V68H70ZM70 61H70.051L70.049 60.9902L70 61ZM69.5 58.5H69.449L69.451 58.5098L69.5 58.5ZM69.5 57H69.5515L69.5485 56.9879L69.5 57ZM68.5 53L68.5485 52.9879L68.5438 52.9691L68.5277 52.9584L68.5 53ZM67 52H66.95V52.0268L66.9723 52.0416L67 52ZM67 50H67.05V49.9882L67.0447 49.9776L67 50ZM66.5 49L66.4521 49.016L66.4553 49.0224L66.5 49ZM66 47.5L66.0474 47.4842L66.036 47.45H66V47.5ZM65 47.5V47.45H64.9882L64.9776 47.4553L65 47.5ZM64 48L64.016 48.0479L64.0224 48.0447L64 48ZM61 49V49.05H61.0081L61.0158 49.0474L61 49ZM60 49L59.9875 49.05H60V49ZM49 46.5L48.9879 46.5486L48.9902 46.549L49 46.5ZM47 46L47.0125 45.95H47V46ZM41 46V45.95H40.9882L40.9776 45.9553L41 46ZM39 47V47.05H39.0118L39.0224 47.0447L39 47ZM37 47L36.99 47.05H37V47ZM34.5 46.5L34.51 46.45H34.5V46.5ZM32.5 46.5L32.4917 46.55H32.5V46.5ZM29.5 46L29.5083 45.95H29.5V46ZM28 46V45.95H27.9691L27.9553 45.9776L28 46ZM22 54L21.9836 53.9508L21.9723 53.9584L22 54ZM20.5 55L20.4717 54.9576L20.4646 54.9646L20.5 55ZM19.5 56L19.4646 55.9646L19.4589 55.9704L19.4553 55.9776L19.5 56ZM18.5 58L18.4548 57.9774L18.4526 57.9842L18.5 58ZM18 59.5L17.9526 59.4842L17.95 59.4919V59.5H18ZM18 64H17.9485L17.9515 64.0121L18 64ZM18.5 66H18.5515L18.5485 65.9879L18.5 66ZM18.5 68H18.45V68.0118L18.4553 68.0224L18.5 68ZM19 69L19.0508 68.9898L19.0447 68.9776L19 69ZM19.5 71.5L19.5496 71.4929L19.549 71.4902L19.5 71.5ZM20 75L19.9497 75.0072L19.9526 75.0158L20 75ZM20.5 76.5L20.5354 76.5354L20.5572 76.5135L20.5474 76.4842L20.5 76.5ZM20 77L19.9646 76.9646L19.9589 76.9704L19.9553 76.9776L20 77ZM19.5 78L19.4553 77.9776L19.45 77.9882V78H19.5ZM19.5 80.5H19.45V80.5118L19.4553 80.5224L19.5 80.5ZM20.5 82.5L20.4553 82.5224L20.4589 82.5296L20.4646 82.5354L20.5 82.5ZM21 83L20.9646 83.0354L20.9704 83.0411L20.9776 83.0447L21 83ZM22 83.5L21.9776 83.5447L21.9882 83.55H22V83.5ZM23.5 83.5H23.55V83.45H23.5V83.5ZM23.5 86H23.45V86.0118L23.4553 86.0224L23.5 86ZM24 87H24.05V86.9882L24.0447 86.9776L24 87ZM24 88H23.95V88.0118L23.9553 88.0224L24 88ZM32 94.5L31.9776 94.5449L31.9814 94.5464L32 94.5ZM34.5 95.5L34.4814 95.5464L34.4904 95.55H34.5V95.5ZM35 95.5L35.0354 95.4646L35.0207 95.45H35V95.5ZM35.5 96H35.55V95.9793L35.5354 95.9646L35.5 96ZM35.5 100.5L35.5447 100.522L35.55 100.512V100.5H35.5ZM34.5 102.5L34.5224 102.545L34.5373 102.537L34.5447 102.522L34.5 102.5ZM33.5 103L33.5124 103.05L33.5224 103.045L33.5 103ZM31.5 103.5V103.552L31.5121 103.549L31.5 103.5ZM31 103.5L30.9776 103.545L30.9882 103.55H31V103.5ZM30 103L30.0224 102.955L30.0118 102.95H30V103ZM29 103V102.95H28.9919L28.9842 102.953L29 103ZM19.5 106.5L19.4776 106.455L19.4704 106.459L19.4646 106.465L19.5 106.5ZM18.5 107.5L18.4646 107.465L18.4589 107.47L18.4553 107.478L18.5 107.5ZM18 108.5L17.9553 108.478L17.95 108.488V108.5H18ZM18 128H17.95V128.012L17.9553 128.022L18 128ZM18.5 129L18.4553 129.022L18.4589 129.03L18.4646 129.035L18.5 129ZM19 129.5L18.9646 129.535L18.9704 129.541L18.9776 129.545L19 129.5ZM20 130L19.9776 130.045L19.9882 130.05H20V130ZM67.5 130V130.05H67.5118L67.5224 130.045L67.5 130ZM60.5 92.5L60.5224 92.5447L60.5296 92.5411L60.5354 92.5354L60.5 92.5ZM63 90L63.0354 90.0354L63.0411 90.0296L63.0447 90.0224L63 90ZM64 88L64.0447 88.0224L64.05 88.0118V88H64ZM68.5 81L68.5354 81.0354L68.55 81.0207V81H68.5ZM68 76L67.9526 75.9842L67.95 75.9919V76H68ZM54 47.5L54.0121 47.4514L54.0098 47.451L54 47.5ZM27 48L26.9548 47.9774L26.9526 47.9842L27 48ZM26 51L26.0452 51.0226L26.0474 51.0158L26 51ZM25 53L25.0158 53.0474L25.0355 53.0409L25.0447 53.0224L25 53ZM25 90L24.9553 90.0224L24.9589 90.0296L24.9646 90.0354L25 90ZM27 92L26.9646 92.0354L26.9704 92.0411L26.9776 92.0447L27 92ZM21.5 105.5L21.484 105.452L21.4776 105.455L21.5 105.5ZM69.5354 129.035L70.0354 128.535L69.9646 128.465L69.4646 128.965L69.5354 129.035ZM70.0447 108.478L69.5447 107.478L69.4553 107.522L69.9553 108.522L70.0447 108.478ZM68.5224 106.455L66.5224 105.455L66.4776 105.545L68.4776 106.545L68.5224 106.455ZM62.0121 103.951L60.0121 103.451L59.9879 103.549L61.9879 104.049L62.0121 103.951ZM60.0224 103.455L59.0224 102.955L58.9776 103.045L59.9776 103.545L60.0224 103.455ZM59 102.95H58V103.05H59V102.95ZM57.9646 102.965L57.4646 103.465L57.5354 103.535L58.0354 103.035L57.9646 102.965ZM55.5224 103.455L54.5224 102.955L54.4776 103.045L55.4776 103.545L55.5224 103.455ZM52.55 101V96H52.45V101H52.55ZM52.5224 96.0447L54.5224 95.0447L54.4776 94.9553L52.4776 95.9553L52.5224 96.0447ZM54.5186 95.0464L57.0186 94.0464L56.9814 93.9536L54.4814 94.9536L54.5186 95.0464ZM57.0158 94.0474L58.5158 93.5474L58.4842 93.4526L56.9842 93.9526L57.0158 94.0474ZM64.0354 84.0354L64.5354 83.5354L64.4646 83.4646L63.9646 83.9646L64.0354 84.0354ZM64.5 83.55H65.5V83.45H64.5V83.55ZM65.5224 83.5447L66.5224 83.0447L66.4776 82.9553L65.4776 83.4553L65.5224 83.5447ZM68.5447 77.9776L68.0447 76.9776L67.9553 77.0224L68.4553 78.0224L68.5447 77.9776ZM69.0485 73.0121L69.5485 71.0121L69.4515 70.9879L68.9515 72.9879L69.0485 73.0121ZM69.55 71V70H69.45V71H69.55ZM69.5485 70.0121L70.0485 68.0121L69.9515 67.9879L69.4515 69.9879L69.5485 70.0121ZM70.05 68V61H69.95V68H70.05ZM70.049 60.9902L69.549 58.4902L69.451 58.5098L69.951 61.0098L70.049 60.9902ZM69.55 58.5V57H69.45V58.5H69.55ZM68.5277 52.9584L67.0277 51.9584L66.9723 52.0416L68.4723 53.0416L68.5277 52.9584ZM67.05 52V50H66.95V52H67.05ZM67.0447 49.9776L66.5447 48.9776L66.4553 49.0224L66.9553 50.0224L67.0447 49.9776ZM66.5474 48.9842L66.0474 47.4842L65.9526 47.5158L66.4526 49.0158L66.5474 48.9842ZM66 47.45H65V47.55H66V47.45ZM64.9776 47.4553L63.9776 47.9553L64.0224 48.0447L65.0224 47.5447L64.9776 47.4553ZM61 48.95H60V49.05H61V48.95ZM49.0121 46.4515L47.0121 45.9515L46.9879 46.0485L48.9879 46.5485L49.0121 46.4515ZM47 45.95H41V46.05H47V45.95ZM39 46.95H37V47.05H39V46.95ZM37.0098 46.951L34.5098 46.451L34.4902 46.549L36.9902 47.049L37.0098 46.951ZM34.5 46.45H32.5V46.55H34.5V46.45ZM32.5082 46.4507L29.5082 45.9507L29.4918 46.0493L32.4918 46.5493L32.5082 46.4507ZM29.5 45.95H28V46.05H29.5V45.95ZM21.9723 53.9584L20.4723 54.9584L20.5277 55.0416L22.0277 54.0416L21.9723 53.9584ZM20.4646 54.9646L19.4646 55.9646L19.5354 56.0354L20.5354 55.0354L20.4646 54.9646ZM18.4526 57.9842L17.9526 59.4842L18.0474 59.5158L18.5474 58.0158L18.4526 57.9842ZM17.95 59.5V64H18.05V59.5H17.95ZM17.9515 64.0121L18.4515 66.0121L18.5485 65.9879L18.0485 63.9879L17.9515 64.0121ZM18.45 66V68H18.55V66H18.45ZM18.4553 68.0224L18.9553 69.0224L19.0447 68.9776L18.5447 67.9776L18.4553 68.0224ZM18.951 69.0098L19.451 71.5098L19.549 71.4902L19.049 68.9902L18.951 69.0098ZM19.4505 71.5071L19.9505 75.0071L20.0495 74.9929L19.5495 71.4929L19.4505 71.5071ZM19.9526 75.0158L20.4526 76.5158L20.5474 76.4842L20.0474 74.9842L19.9526 75.0158ZM20.4646 76.4646L19.9646 76.9646L20.0354 77.0354L20.5354 76.5354L20.4646 76.4646ZM19.9553 76.9776L19.4553 77.9776L19.5447 78.0224L20.0447 77.0224L19.9553 76.9776ZM19.45 78V80.5H19.55V78H19.45ZM20.4646 82.5354L20.9646 83.0354L21.0354 82.9646L20.5354 82.4646L20.4646 82.5354ZM20.9776 83.0447L21.9776 83.5447L22.0224 83.4553L21.0224 82.9553L20.9776 83.0447ZM22 83.55H23.5V83.45H22V83.55ZM23.45 83.5V86H23.55V83.5H23.45ZM23.4553 86.0224L23.9553 87.0224L24.0447 86.9776L23.5447 85.9776L23.4553 86.0224ZM23.95 87V88H24.05V87H23.95ZM31.9814 94.5464L34.4814 95.5464L34.5186 95.4536L32.0186 94.4536L31.9814 94.5464ZM34.5 95.55H35V95.45H34.5V95.55ZM34.9646 95.5354L35.4646 96.0354L35.5354 95.9646L35.0354 95.4646L34.9646 95.5354ZM35.45 96V100.5H35.55V96H35.45ZM34.4776 102.455L33.4776 102.955L33.5224 103.045L34.5224 102.545L34.4776 102.455ZM33.4879 102.951L31.4879 103.451L31.5121 103.549L33.5121 103.049L33.4879 102.951ZM31.5 103.45H31V103.55H31.5V103.45ZM31.0224 103.455L30.0224 102.955L29.9776 103.045L30.9776 103.545L31.0224 103.455ZM30 102.95H29V103.05H30V102.95ZM19.4646 106.465L18.4646 107.465L18.5354 107.535L19.5354 106.535L19.4646 106.465ZM18.4553 107.478L17.9553 108.478L18.0447 108.522L18.5447 107.522L18.4553 107.478ZM17.95 108.5V128H18.05V108.5H17.95ZM17.9553 128.022L18.4553 129.022L18.5447 128.978L18.0447 127.978L17.9553 128.022ZM18.4646 129.035L18.9646 129.535L19.0354 129.465L18.5354 128.965L18.4646 129.035ZM18.9776 129.545L19.9776 130.045L20.0224 129.955L19.0224 129.455L18.9776 129.545ZM67.5224 130.045L69.5224 129.045L69.4776 128.955L67.4776 129.955L67.5224 130.045ZM70.05 128.5V108.5H69.95V128.5H70.05ZM69.5354 107.465L68.5354 106.465L68.4646 106.535L69.4646 107.535L69.5354 107.465ZM66.5158 105.453L62.0158 103.953L61.9842 104.047L66.4842 105.547L66.5158 105.453ZM57.5 103.45H55.5V103.55H57.5V103.45ZM54.5354 102.965L52.5354 100.965L52.4646 101.035L54.4646 103.035L54.5354 102.965ZM58.5224 93.5447L60.5224 92.5447L60.4776 92.4553L58.4776 93.4553L58.5224 93.5447ZM60.5354 92.5354L63.0354 90.0354L62.9646 89.9646L60.4646 92.4646L60.5354 92.5354ZM63.0447 90.0224L64.0447 88.0224L63.9553 87.9776L62.9553 89.9776L63.0447 90.0224ZM64.05 88V84H63.95V88H64.05ZM66.5354 83.0354L68.5354 81.0354L68.4646 80.9646L66.4646 82.9646L66.5354 83.0354ZM68.55 81V78H68.45V81H68.55ZM68.05 77V76H67.95V77H68.05ZM68.0474 76.0158L69.0474 73.0158L68.9526 72.9842L67.9526 75.9842L68.0474 76.0158ZM69.5485 56.9879L68.5485 52.9879L68.4515 53.0121L69.4515 57.0121L69.5485 56.9879ZM63.9842 47.9526L60.9842 48.9526L61.0158 49.0474L64.0158 48.0474L63.9842 47.9526ZM60.0121 48.9515L54.0121 47.4515L53.9879 47.5485L59.9879 49.0485L60.0121 48.9515ZM54.0098 47.451L49.0098 46.451L48.9902 46.549L53.9902 47.549L54.0098 47.451ZM40.9776 45.9553L38.9776 46.9553L39.0224 47.0447L41.0224 46.0447L40.9776 45.9553ZM27.9553 45.9776L26.9553 47.9776L27.0447 48.0224L28.0447 46.0224L27.9553 45.9776ZM26.9526 47.9842L25.9526 50.9842L26.0474 51.0158L27.0474 48.0158L26.9526 47.9842ZM25.9553 50.9776L24.9553 52.9776L25.0447 53.0224L26.0447 51.0224L25.9553 50.9776ZM24.9842 52.9526L21.9842 53.9526L22.0158 54.0474L25.0158 53.0474L24.9842 52.9526ZM19.4553 55.9776L18.4553 57.9776L18.5447 58.0224L19.5447 56.0224L19.4553 55.9776ZM19.4553 80.5224L20.4553 82.5224L20.5447 82.4776L19.5447 80.4776L19.4553 80.5224ZM23.9553 88.0224L24.9553 90.0224L25.0447 89.9776L24.0447 87.9776L23.9553 88.0224ZM24.9646 90.0354L26.9646 92.0354L27.0354 91.9646L25.0354 89.9646L24.9646 90.0354ZM26.9776 92.0447L31.9776 94.5447L32.0224 94.4553L27.0224 91.9553L26.9776 92.0447ZM35.4553 100.478L34.4553 102.478L34.5447 102.522L35.5447 100.522L35.4553 100.478ZM28.9842 102.953L21.4842 105.453L21.5158 105.547L29.0158 103.047L28.9842 102.953ZM21.4776 105.455L19.4776 106.455L19.5224 106.545L21.5224 105.545L21.4776 105.455ZM20 130.05H67.5V129.95H20V130.05Z" fill="white"/>
</g>
<defs>
<clipPath id="clip0_623_155">
<rect width="90" height="130" fill="white"/>
</clipPath>
</defs>
</svg>
